<?xml version="1.0" encoding="utf-8"?>
<!-- Uploaded to: SVG Repo, www.svgrepo.com, Generator: SVG Repo Mixer Tools -->
<svg width="800px" height="800px" viewBox="0 0 256 256" xmlns="http://www.w3.org/2000/svg" xmlns:xlink="http://www.w3.org/1999/xlink" preserveAspectRatio="xMidYMid">
  <defs>
    <style>

      .cls-3 {
        fill: #fcc402;
      }

      .cls-4 {
        fill: #fce202;
      }

      .cls-6 {
        fill: url(#linear-gradient-1);
      }

      .cls-8 {
        fill: #ffffff;
      }
    </style>

    <linearGradient id="linear-gradient-1" gradientUnits="userSpaceOnUse" x1="128" y1="172" x2="128" y2="32">
      <stop offset="0" stop-color="#fc9502"/>
      <stop offset="1" stop-color="#fcbe02"/>
    </linearGradient>
  </defs>
  <g id="cup">
    <path d="M63.000,224.000 C89.509,224.000 111.000,202.510 111.000,176.000 C111.000,176.000 111.000,154.000 111.000,154.000 C111.000,154.000 145.000,154.000 145.000,154.000 C145.000,154.000 145.000,176.000 145.000,176.000 C145.000,202.510 167.000,224.000 193.000,224.000 C219.000,224.000 29.420,224.000 63.000,224.000 Z" id="path-1" class="cls-3" fill-rule="evenodd"/>
    <path d="M193.000,256.000 C193.000,256.000 63.000,256.000 63.000,256.000 C54.163,256.000 47.000,248.836 47.000,240.000 C47.000,231.163 54.163,224.000 63.000,224.000 C72.287,224.000 183.976,224.000 193.000,224.000 C201.836,224.000 209.000,231.163 209.000,240.000 C209.000,248.836 201.836,256.000 193.000,256.000 Z" id="path-2" class="cls-4" fill-rule="evenodd"/>
    <path d="M248.000,62.000 C248.000,62.000 236.000,62.000 236.000,62.000 C217.222,62.000 201.000,77.222 201.000,96.000 C201.000,96.000 195.000,96.000 195.000,96.000 C195.000,96.000 195.000,62.000 195.000,62.000 C197.780,48.307 209.486,38.000 224.000,38.000 C224.000,38.000 248.000,38.000 248.000,38.000 C252.418,38.000 256.000,41.582 256.000,46.000 C256.000,46.000 256.000,54.000 256.000,54.000 C256.000,58.418 252.418,62.000 248.000,62.000 ZM20.000,62.000 C20.000,62.000 8.000,62.000 8.000,62.000 C3.582,62.000 -0.000,58.418 -0.000,54.000 C-0.000,54.000 -0.000,46.000 -0.000,46.000 C-0.000,41.582 3.582,38.000 8.000,38.000 C8.000,38.000 32.000,38.000 32.000,38.000 C46.513,38.000 58.220,48.307 61.000,62.000 C61.000,62.000 61.000,96.000 61.000,96.000 C61.000,96.000 55.000,96.000 55.000,96.000 C55.000,77.222 38.778,62.000 20.000,62.000 Z" id="path-3" class="cls-4" fill-rule="evenodd"/>
    <path d="M54.000,32.000 C54.000,32.000 202.000,32.000 202.000,32.000 C202.000,32.000 202.000,98.000 202.000,98.000 C202.000,138.869 168.869,172.000 128.000,172.000 C87.131,172.000 54.000,138.869 54.000,98.000 C54.000,98.000 54.000,32.000 54.000,32.000 Z" id="path-4" class="cls-6" fill-rule="evenodd"/>
    <path d="M52.000,-0.000 C52.000,-0.000 204.000,-0.000 204.000,-0.000 C208.418,-0.000 212.000,3.582 212.000,8.000 C212.000,8.000 212.000,16.000 212.000,16.000 C212.000,20.418 208.418,24.000 204.000,24.000 C204.000,24.000 52.000,24.000 52.000,24.000 C47.582,24.000 44.000,20.418 44.000,16.000 C44.000,16.000 44.000,8.000 44.000,8.000 C44.000,3.582 47.582,-0.000 52.000,-0.000 Z" id="path-5" class="cls-3" fill-rule="evenodd"/>
    <path d="M162.856,90.349 C157.186,96.253 149.864,104.224 149.864,104.224 C149.864,104.224 151.121,114.155 152.104,122.143 C153.122,130.408 148.536,129.653 143.551,127.407 C136.369,124.171 128.000,120.112 128.000,120.112 C128.000,120.112 119.631,124.171 112.449,127.407 C107.464,129.653 102.877,130.408 103.895,122.143 C104.879,114.155 106.136,104.224 106.136,104.224 C106.136,104.224 98.814,96.253 93.144,90.349 C90.272,87.359 89.502,83.284 95.639,82.135 C103.704,80.624 114.487,78.513 114.487,78.513 C114.487,78.513 119.123,67.961 123.261,60.785 C125.386,57.099 130.614,57.099 132.739,60.785 C136.877,67.961 141.513,78.513 141.513,78.513 C141.513,78.513 152.296,80.624 160.361,82.135 C166.497,83.284 165.728,87.359 162.856,90.349 Z" id="path-6" class="cls-8" fill-rule="evenodd"/>
  </g>
</svg>